<?xml version="1.0" encoding="us-ascii" standalone="no"?><svg xmlns="http://www.w3.org/2000/svg" xmlns:xlink="http://www.w3.org/1999/xlink" contentStyleType="text/css" height="401px" preserveAspectRatio="none" style="width:507px;height:401px;background:#FFFFFF;" version="1.1" viewBox="0 0 507 401" width="507px" zoomAndPan="magnify"><defs/><g><!--cluster facade_wea--><g id="cluster_facade_wea"><path d="M8.5,6 L103.5,6 A3.75,3.75 0 0 1 106,8.5 L113,28.2969 L497.5,28.2969 A2.5,2.5 0 0 1 500,30.7969 L500,391.5 A2.5,2.5 0 0 1 497.5,394 L8.5,394 A2.5,2.5 0 0 1 6,391.5 L6,8.5 A2.5,2.5 0 0 1 8.5,6 " fill="none" style="stroke:#000000;stroke-width:1.5;"/><line style="stroke:#000000;stroke-width:1.5;" x1="6" x2="113" y1="28.2969" y2="28.2969"/><text fill="#000000" font-family="sans-serif" font-size="14" font-weight="bold" lengthAdjust="spacing" textLength="94" x="10" y="20.9951">facade_wea</text></g><!--cluster facade_wea.dart--><g id="cluster_facade_wea.dart"><path d="M32.5,49 L167.5,49 A3.75,3.75 0 0 1 170,51.5 L177,71.2969 L473.5,71.2969 A2.5,2.5 0 0 1 476,73.7969 L476,367.5 A2.5,2.5 0 0 1 473.5,370 L32.5,370 A2.5,2.5 0 0 1 30,367.5 L30,51.5 A2.5,2.5 0 0 1 32.5,49 " fill="none" style="stroke:#000000;stroke-width:1.5;"/><line style="stroke:#000000;stroke-width:1.5;" x1="30" x2="177" y1="71.2969" y2="71.2969"/><text fill="#000000" font-family="sans-serif" font-size="14" font-weight="bold" lengthAdjust="spacing" textLength="134" x="34" y="63.9951">facade_wea.dart</text></g><!--class WeatherApi--><g id="elem_WeatherApi"><rect codeLine="3" fill="#F1F1F1" height="113.1875" id="WeatherApi" rx="2.5" ry="2.5" style="stroke:#181818;stroke-width:0.5;" width="414" x="46" y="241"/><ellipse cx="205.75" cy="257" fill="#ADD1B2" rx="11" ry="11" style="stroke:#181818;stroke-width:1.0;"/><path d="M208.0938,252.6719 C207.1563,252.2344 206.5625,252.0938 205.6875,252.0938 C203.0625,252.0938 201.0625,254.1719 201.0625,256.8906 L201.0625,258.0156 C201.0625,260.5938 203.1719,262.4844 206.0625,262.4844 C207.2813,262.4844 208.4375,262.1875 209.1875,261.6406 C209.7656,261.2344 210.0938,260.7813 210.0938,260.3906 C210.0938,259.9375 209.7031,259.5469 209.2344,259.5469 C209.0156,259.5469 208.8125,259.625 208.625,259.8125 C208.1719,260.2969 208.1719,260.2969 207.9844,260.3906 C207.5625,260.6563 206.875,260.7813 206.1094,260.7813 C204.0625,260.7813 202.7656,259.6875 202.7656,257.9844 L202.7656,256.8906 C202.7656,255.1094 204.0156,253.7969 205.75,253.7969 C206.3281,253.7969 206.9375,253.9531 207.4063,254.2031 C207.8906,254.4844 208.0625,254.7031 208.1563,255.1094 C208.2188,255.5156 208.25,255.6406 208.3906,255.7656 C208.5313,255.9063 208.7656,256.0156 208.9844,256.0156 C209.25,256.0156 209.5156,255.875 209.6875,255.6563 C209.7969,255.5 209.8281,255.3125 209.8281,254.8906 L209.8281,253.4688 C209.8281,253.0313 209.8125,252.9063 209.7188,252.75 C209.5625,252.4844 209.2813,252.3438 208.9844,252.3438 C208.6875,252.3438 208.4844,252.4375 208.2656,252.75 L208.0938,252.6719 Z " fill="#000000"/><text fill="#000000" font-family="sans-serif" font-size="14" lengthAdjust="spacing" textLength="86" x="226.25" y="261.8467">WeatherApi</text><line style="stroke:#181818;stroke-width:0.5;" x1="47" x2="459" y1="273" y2="273"/><rect fill="none" height="6" style="stroke:#C82930;stroke-width:1.0;" width="6" x="54" y="283.6484"/><text fill="#000000" font-family="sans-serif" font-size="14" lengthAdjust="spacing" textLength="104" x="66" y="289.9951">String _apiKey</text><rect fill="none" height="6" style="stroke:#C82930;stroke-width:1.0;" width="6" x="54" y="299.9453"/><text fill="#000000" font-family="sans-serif" font-size="14" lengthAdjust="spacing" textLength="108" x="66" y="306.292">String _baseUrl</text><rect fill="none" height="6" style="stroke:#C82930;stroke-width:1.0;" width="6" x="54" y="316.2422"/><text fill="#000000" font-family="sans-serif" font-size="14" lengthAdjust="spacing" textLength="123" x="66" y="322.5889">String _cityName</text><line style="stroke:#181818;stroke-width:0.5;" x1="47" x2="459" y1="329.8906" y2="329.8906"/><ellipse cx="57" cy="343.5391" fill="#84BE84" rx="3" ry="3" style="stroke:#038048;stroke-width:1.0;"/><text fill="#000000" font-family="sans-serif" font-size="14" lengthAdjust="spacing" textLength="388" x="66" y="346.8857">Future&lt;Map&lt;String, dynamic&gt;&gt; getCurrentWeather()</text></g><!--class WeatherFacade--><g id="elem_WeatherFacade"><rect codeLine="10" fill="#F1F1F1" height="96.8906" id="WeatherFacade" rx="2.5" ry="2.5" style="stroke:#181818;stroke-width:0.5;" width="327" x="89.5" y="84"/><ellipse cx="192.75" cy="100" fill="#ADD1B2" rx="11" ry="11" style="stroke:#181818;stroke-width:1.0;"/><path d="M195.0938,95.6719 C194.1563,95.2344 193.5625,95.0938 192.6875,95.0938 C190.0625,95.0938 188.0625,97.1719 188.0625,99.8906 L188.0625,101.0156 C188.0625,103.5938 190.1719,105.4844 193.0625,105.4844 C194.2813,105.4844 195.4375,105.1875 196.1875,104.6406 C196.7656,104.2344 197.0938,103.7813 197.0938,103.3906 C197.0938,102.9375 196.7031,102.5469 196.2344,102.5469 C196.0156,102.5469 195.8125,102.625 195.625,102.8125 C195.1719,103.2969 195.1719,103.2969 194.9844,103.3906 C194.5625,103.6563 193.875,103.7813 193.1094,103.7813 C191.0625,103.7813 189.7656,102.6875 189.7656,100.9844 L189.7656,99.8906 C189.7656,98.1094 191.0156,96.7969 192.75,96.7969 C193.3281,96.7969 193.9375,96.9531 194.4063,97.2031 C194.8906,97.4844 195.0625,97.7031 195.1563,98.1094 C195.2188,98.5156 195.25,98.6406 195.3906,98.7656 C195.5313,98.9063 195.7656,99.0156 195.9844,99.0156 C196.25,99.0156 196.5156,98.875 196.6875,98.6563 C196.7969,98.5 196.8281,98.3125 196.8281,97.8906 L196.8281,96.4688 C196.8281,96.0313 196.8125,95.9063 196.7188,95.75 C196.5625,95.4844 196.2813,95.3438 195.9844,95.3438 C195.6875,95.3438 195.4844,95.4375 195.2656,95.75 L195.0938,95.6719 Z " fill="#000000"/><text fill="#000000" font-family="sans-serif" font-size="14" lengthAdjust="spacing" textLength="112" x="213.25" y="104.8467">WeatherFacade</text><line style="stroke:#181818;stroke-width:0.5;" x1="90.5" x2="415.5" y1="116" y2="116"/><rect fill="none" height="6" style="stroke:#C82930;stroke-width:1.0;" width="6" x="97.5" y="126.6484"/><text fill="#000000" font-family="sans-serif" font-size="14" lengthAdjust="spacing" textLength="180" x="109.5" y="132.9951">WeatherApi _weatherApi</text><line style="stroke:#181818;stroke-width:0.5;" x1="90.5" x2="415.5" y1="140.2969" y2="140.2969"/><ellipse cx="100.5" cy="153.9453" fill="#84BE84" rx="3" ry="3" style="stroke:#038048;stroke-width:1.0;"/><text fill="#000000" font-family="sans-serif" font-size="14" lengthAdjust="spacing" textLength="301" x="109.5" y="157.292">Future&lt;String&gt; getCurrentTemperature()</text><ellipse cx="100.5" cy="170.2422" fill="#84BE84" rx="3" ry="3" style="stroke:#038048;stroke-width:1.0;"/><text fill="#000000" font-family="sans-serif" font-size="14" lengthAdjust="spacing" textLength="290" x="109.5" y="173.5889">Future&lt;String&gt; getCurrentDescription()</text></g><!--reverse link WeatherFacade to WeatherApi--><g id="link_WeatherFacade_WeatherApi"><path codeLine="16" d="M253,194.182 C253,209.459 253,225.783 253,240.803 " fill="none" id="WeatherFacade-backto-WeatherApi" style="stroke:#181818;stroke-width:1.0;"/><polygon fill="none" points="253,181.085,249,187.085,253,193.085,257,187.085,253,181.085" style="stroke:#181818;stroke-width:1.0;"/></g><!--SRC=[bP2n2i9044JxVCMIIj7u0OS4H4aZsgXOodfPzI0cnzu62UA_Uvf0hXBJ3JC3ynX70YNUoLdKj2EBZ58nA1L5ka3d8BwWnfnE3qAbUZtBaKMf8w7SY1VMnF2C09ATi2clS49hrjI4pXaT7RW8BMsasVfnxqsoMcgc-GRjl8sda3UUpEWqXIl9icQcKhh1qJXw3IBCldu7sLF3fzdfWA8b27VtTBVal_6ft_xLN97JRAoOgcmf1_5LIVB_vMy0]--></g></svg>